<svg width="24" height="24" viewBox="0 0 24 24" fill="none" xmlns="http://www.w3.org/2000/svg">
<path d="M17.797 12.349C17.8079 11.5143 18.0298 10.696 18.4419 9.97005C18.854 9.24413 19.4429 8.6342 20.154 8.197C19.7023 7.55182 19.1064 7.02085 18.4136 6.64624C17.7208 6.27164 16.9502 6.06372 16.163 6.039C14.483 5.863 12.855 7.044 12 7.044C11.127 7.044 9.81003 6.057 8.39103 6.086C7.47332 6.11562 6.57894 6.38248 5.79504 6.86056C5.01114 7.33865 4.36446 8.01166 3.91803 8.814C1.98403 12.162 3.42703 17.084 5.28003 19.79C6.20603 21.115 7.29003 22.596 8.70703 22.543C10.094 22.486 10.612 21.659 12.287 21.659C13.945 21.659 14.431 22.543 15.877 22.509C17.366 22.486 18.304 21.179 19.198 19.841C19.8642 18.8965 20.3769 17.8526 20.717 16.748C19.852 16.3824 19.1137 15.7702 18.5944 14.9877C18.0751 14.2052 17.7978 13.2871 17.797 12.348V12.349Z" fill="#1B1B1B" style="fill:#1B1B1B;fill:color(display-p3 0.1059 0.1059 0.1059);fill-opacity:1;"/>
<path d="M15.0661 4.49C15.8773 3.5159 16.277 2.26396 16.1801 1C14.9404 1.13042 13.7954 1.72312 12.9731 2.66C12.5709 3.11756 12.2628 3.64991 12.0665 4.22662C11.8702 4.80333 11.7896 5.41308 11.8291 6.021C12.4492 6.0274 13.0628 5.89303 13.6234 5.62801C14.1841 5.36299 14.6774 4.97424 15.0661 4.491V4.49Z" fill="#1B1B1B" style="fill:#1B1B1B;fill:color(display-p3 0.1059 0.1059 0.1059);fill-opacity:1;"/>
</svg>
