<svg width="24" height="24" viewBox="0 0 24 24" fill="none" xmlns="http://www.w3.org/2000/svg">
<path fill-rule="evenodd" clip-rule="evenodd" d="M14.674 7.32698L6.03004 2.31398C5.56105 2.03198 5.00395 1.93444 4.46705 2.04034C3.93015 2.14625 3.45181 2.44801 3.12504 2.88698L11.12 10.882L14.675 7.32698H14.674ZM2.68604 4.61698V19.315L10.035 11.966L2.68604 4.61698ZM3.22404 20.946C3.43093 21.1861 3.68727 21.3787 3.9755 21.5106C4.26374 21.6424 4.57707 21.7105 4.89404 21.71C5.30004 21.71 5.68403 21.603 6.01403 21.403L6.03603 21.388L14.547 16.478L11.119 13.05L3.22404 20.946ZM15.93 15.693L19.176 13.821C19.5259 13.6319 19.8181 13.3518 20.022 13.0103C20.2258 12.6688 20.3336 12.2787 20.334 11.881C20.3358 11.485 20.2297 11.0961 20.0271 10.7559C19.8245 10.4157 19.533 10.1371 19.184 9.94998V9.94198H19.176L16.048 8.12198L12.203 11.966L15.93 15.693Z" fill="#1B1B1B" style="fill:#1B1B1B;fill:color(display-p3 0.1059 0.1059 0.1059);fill-opacity:1;"/>
</svg>
