<svg width="122" height="32" viewBox="0 0 122 32" fill="none" xmlns="http://www.w3.org/2000/svg">
<path d="M22.4265 31.9639V7.65677H26.1764V9.93218H26.2485C27.7268 7.98183 29.9623 7.07889 32.4501 7.07889C37.6062 7.07889 41.7526 11.0157 41.7526 16.5778C41.7526 22.1399 37.5701 26.1128 32.342 26.1128C29.9623 26.1128 27.835 25.246 26.3927 23.5124V32H22.4265V31.9639ZM37.6422 16.5778C37.6422 13.1828 35.2625 10.799 32.0175 10.799C28.7724 10.799 26.4288 13.1828 26.4288 16.5778C26.4288 19.9729 28.8085 22.3205 32.0175 22.3205C35.2265 22.3205 37.6422 19.9367 37.6422 16.5778Z" fill="#1B1B1B" style="fill:#1B1B1B;fill:color(display-p3 0.1059 0.1059 0.1059);fill-opacity:1;"/>
<path d="M43.7 31.9639V7.65677H47.4498V9.93218H47.5219C49.0002 7.98183 51.2357 7.07889 53.7236 7.07889C58.8796 7.07889 63.0261 11.0157 63.0261 16.5778C63.0261 22.1399 58.8436 26.1128 53.6154 26.1128C51.2357 26.1128 49.1084 25.246 47.6661 23.5124V32H43.7V31.9639ZM58.9517 16.5778C58.9517 13.1828 56.572 10.799 53.327 10.799C50.0819 10.799 47.7382 13.1828 47.7382 16.5778C47.7382 19.9729 50.1179 22.3205 53.327 22.3205C56.536 22.3205 58.9517 19.9367 58.9517 16.5778Z" fill="#1B1B1B" style="fill:#1B1B1B;fill:color(display-p3 0.1059 0.1059 0.1059);fill-opacity:1;"/>
<path d="M15.3599 25.4988V23.4762C13.9177 25.2099 11.7904 26.0767 9.41067 26.0767C4.21858 26.0767 0 22.0676 0 16.5416C0 11.0157 4.11041 7.04272 9.3025 7.04272C11.7904 7.04272 14.0259 7.94566 15.5042 9.89601H15.5763V7.62061H19.3261V25.4627H15.3599V25.4988ZM9.77123 22.3566C12.9802 22.3566 15.3599 19.9728 15.3599 16.6139C15.3599 13.2188 12.9802 10.8351 9.77123 10.8351C6.56223 10.8351 4.14646 13.2188 4.14646 16.6139C4.14646 20.0089 6.52617 22.3566 9.77123 22.3566Z" fill="#1B1B1B" style="fill:#1B1B1B;fill:color(display-p3 0.1059 0.1059 0.1059);fill-opacity:1;"/>
<path d="M63.9271 16.6139C63.9271 11.0879 68.1818 7.04272 73.6984 7.04272C79.215 7.04272 83.3975 10.9795 83.3975 16.5416C83.3975 22.1038 79.1428 26.0767 73.6262 26.0767C68.1096 26.0767 63.9271 22.1399 63.9271 16.6139ZM79.251 16.5778C79.251 13.1827 76.9073 10.799 73.6623 10.799C70.4172 10.799 68.0736 13.1827 68.0736 16.5778C68.0736 19.9728 70.4172 22.3205 73.6623 22.3205C76.9073 22.3205 79.251 19.9367 79.251 16.5778Z" fill="#1B1B1B" style="fill:#1B1B1B;fill:color(display-p3 0.1059 0.1059 0.1059);fill-opacity:1;"/>
<path d="M84.623 2.63658C84.623 1.15576 85.8129 0 87.2912 0C88.7695 0 89.9594 1.15576 89.9594 2.63658C89.9594 4.1174 88.7695 5.27317 87.2912 5.27317C85.8129 5.27317 84.623 4.15352 84.623 2.63658ZM89.3103 25.499H85.3442V7.65693H89.3103V25.499Z" fill="#1B1B1B" style="fill:#1B1B1B;fill:color(display-p3 0.1059 0.1059 0.1059);fill-opacity:1;"/>
<path d="M92.3765 25.4988V7.65677H96.1263V9.39041H96.1984C97.208 7.90959 98.8305 7.07889 100.994 7.07889C105.429 7.07889 107.664 10.1489 107.664 14.483V25.535H103.698V14.9886C103.698 12.2798 102.328 10.799 100.02 10.799C97.7128 10.799 96.3426 12.3521 96.3426 14.9886V25.535H92.3765V25.4988Z" fill="#1B1B1B" style="fill:#1B1B1B;fill:color(display-p3 0.1059 0.1059 0.1059);fill-opacity:1;"/>
<path d="M116.641 11.3769L116.569 18.8893C116.533 21.4175 117.398 22.0677 119.453 22.0677C120.319 22.0677 121.04 21.9593 121.472 21.851V25.4988C120.895 25.6072 119.85 25.7155 118.696 25.7155C114.586 25.7155 112.566 23.9819 112.602 19.2866L112.675 11.3769H108.672V7.65676H112.675V2.99759H116.641V7.65676H121.472V11.3769H116.641Z" fill="#1B1B1B" style="fill:#1B1B1B;fill:color(display-p3 0.1059 0.1059 0.1059);fill-opacity:1;"/>
</svg>
