<svg width="24" height="24" viewBox="0 0 24 24" fill="none" xmlns="http://www.w3.org/2000/svg">
<g clip-path="url(#clip0_912_1208)">
<path fill-rule="evenodd" clip-rule="evenodd" d="M11.509 24C6.08171 24 3.35443 24 1.66352 22.3118C-0.0246582 20.6236 -0.0246582 17.9209 -0.0246582 12.4664L-0.0246582 11.5064C-0.0246584 6.07908 -0.0246586 3.35181 1.66352 1.6609C3.35171 -0.0272826 6.05443 -0.0272827 11.509 -0.0272827L12.469 -0.0272827C17.8963 -0.027283 20.6236 -0.0272831 22.3145 1.6609C24.0026 3.34908 24.0026 6.05181 24.0026 11.5064V12.4664C24.0026 17.8936 24.0026 20.6209 22.3145 22.3118C20.6263 24.0027 17.9236 24 12.469 24H11.509Z" fill="#1B1B1B" style="fill:#1B1B1B;fill:color(display-p3 0.1059 0.1059 0.1059);fill-opacity:1;"/>
<path d="M13.9637 4.39092C13.3364 4.38476 12.7909 4.89002 12.7909 5.55002V6.96002L9.84547 6.22638C9.75383 6.20352 9.66247 6.19202 9.57274 6.1912C8.94547 6.18503 8.40001 6.69029 8.40001 7.35029V8.75483L5.48183 8.02665C4.7482 7.84392 4.03638 8.39756 4.03638 9.15029V16.9776C4.03638 17.643 4.4891 18.2212 5.13547 18.3821L9.7991 19.5439C10.5327 19.7267 11.2446 19.173 11.2446 18.4203V10.593C11.2446 10.1157 11.0108 9.68483 10.6418 9.42029C10.6359 9.40101 10.6373 9.37965 10.6493 9.3622C10.6697 9.33247 10.7066 9.31829 10.7409 9.32865C11.3546 9.51411 11.9382 10.1414 11.9982 10.9323L12.2006 16.905C12.2058 17.1052 12.3394 17.2759 12.5278 17.3387L14.1642 17.745C14.8978 17.9277 15.6096 17.3741 15.6096 16.6214C15.629 14.0387 15.6234 11.4123 15.624 8.82138C15.624 8.46956 15.5051 8.19956 15.3715 8.0032C15.3498 7.97047 15.327 7.93829 15.3028 7.9072C15.2736 7.87011 15.2417 7.83492 15.209 7.80056C15.1601 7.74929 15.108 7.70047 15.0519 7.65683L15.0508 7.65577C15.0277 7.63253 15.0211 7.59632 15.0401 7.56904C15.0606 7.53932 15.0974 7.52513 15.1318 7.5355C15.7454 7.72095 16.3318 8.34823 16.389 9.13913L16.5914 15.1119C16.5966 15.3104 16.7289 15.48 16.916 15.54L18.555 15.9491C19.2887 16.1319 20.0005 15.5782 20.0005 14.8255V6.99823C20.0005 6.33277 19.5478 5.75459 18.9014 5.59368L14.2378 4.43186C14.1461 4.40901 14.0548 4.3975 13.965 4.39668L13.9637 4.39092Z" fill="white" style="fill:white;fill-opacity:1;"/>
</g>
<defs>
<clipPath id="clip0_912_1208">
<rect width="24" height="24" fill="white" style="fill:white;fill-opacity:1;"/>
</clipPath>
</defs>
</svg>
